<svg width="241" height="209" xmlns="http://www.w3.org/2000/svg"><defs><linearGradient x1="50.026%" y1="95.654%" x2="50.026%" y2="-58.141%" id="a"><stop stop-color="#283666" offset="0%"/><stop stop-color="#07AADA" offset="39%"/><stop stop-color="#07AADA" offset="52%"/><stop stop-color="#283666" offset="100%"/></linearGradient><linearGradient x1="49.993%" y1="78.017%" x2="49.993%" y2="21.908%" id="b"><stop stop-color="#07AADA" offset="10%"/><stop stop-color="#283666" offset="100%"/></linearGradient><linearGradient x1="18.585%" y1="103.005%" x2="84.152%" y2="5.3%" id="c"><stop stop-color="#EFEEEA" offset="0%"/><stop stop-color="#5EC5EC" offset="100%"/></linearGradient><linearGradient x1="50.001%" y1="79.447%" x2="50.001%" y2="26.595%" id="d"><stop stop-color="#07AADA" offset="10%"/><stop stop-color="#283666" offset="100%"/></linearGradient></defs><g fill="none"><path d="M156.49 176.55V32.39c0-18.81-7.33-32.39-26.13-32.39h-28.2c8 0 12.56 5.32 15 12.53 2.07 6 2.71 13.22 2.71 19.86v144.16c0 21.93 10.44 32.39 32.39 32.39h27.18c-17.71-6.28-22.95-20.9-22.95-32.39z" fill="url(#a)"/><path d="M195.13 61.649h-38.64V94.02h30.29a16.5 16.5 0 0 1 16.71 16.72v49.09a16.5 16.5 0 0 1-16.71 16.73h-30.29c0 11.48 5.25 26.11 23 32.391h15.65a44.59 44.59 0 0 0 44.94-44.921v-57.47a44.59 44.59 0 0 0-44.95-44.911z" fill="url(#b)"/><path d="M102.16 0c-17.76 0-21.43 15.15-24 23 0 .22-8.86 27.94-12.27 38.67h12.26c11.48 0 20.89 1 27.15-9.43l11.9-39.71C114.72 5.31 110.17 0 102.16 0z" fill="url(#c)"/><path d="M78.15 61.65H44.93A44.58 44.58 0 0 0 0 106.56v57.46a44.58 44.58 0 0 0 44.93 44.921h36.34c8.37 0 15.67-4.191 15.67-12.531v-19.86H53.29a16.5 16.5 0 0 1-16.72-16.73v-49.08a16.5 16.5 0 0 1 16.72-16.72h18.56c18.8 0 24.3-11.5 27.19-20.9l6.26-20.9c-6.3 10.46-15.67 9.43-27.15 9.43z" fill="url(#d)"/></g></svg>